<svg width="190" height="30" viewBox="0 0 197 40" fill="none" xmlns="http://www.w3.org/2000/svg">
<rect width="196.691" height="39.2692" rx="12.2549" fill="#191B20"/>
<path d="M134.831 14.4836C134.831 11.7222 137.07 9.48364 139.831 9.48364H180.705C183.466 9.48364 185.705 11.7222 185.705 14.4836V27.2551C185.705 30.0165 183.466 32.2551 180.705 32.2551H139.831C137.07 32.2551 134.831 30.0165 134.831 27.2551V14.4836Z" fill="#A3E3FF"/>
<path d="M151.163 17.1458V18.5018H148.931V25.5218H147.251V18.5018H145.019V17.1458H151.163ZM153.481 18.0818C153.185 18.0818 152.937 17.9898 152.737 17.8058C152.545 17.6138 152.449 17.3778 152.449 17.0978C152.449 16.8178 152.545 16.5858 152.737 16.4018C152.937 16.2098 153.185 16.1138 153.481 16.1138C153.777 16.1138 154.021 16.2098 154.213 16.4018C154.413 16.5858 154.513 16.8178 154.513 17.0978C154.513 17.3778 154.413 17.6138 154.213 17.8058C154.021 17.9898 153.777 18.0818 153.481 18.0818ZM154.309 18.8738V25.5218H152.629V18.8738H154.309ZM162.389 22.0538C162.389 22.2938 162.373 22.5098 162.341 22.7018H157.481C157.521 23.1818 157.689 23.5578 157.985 23.8298C158.281 24.1018 158.645 24.2378 159.077 24.2378C159.701 24.2378 160.145 23.9698 160.409 23.4338H162.221C162.029 24.0738 161.661 24.6018 161.117 25.0178C160.573 25.4258 159.905 25.6298 159.113 25.6298C158.473 25.6298 157.897 25.4898 157.385 25.2098C156.881 24.9218 156.485 24.5178 156.197 23.9978C155.917 23.4778 155.777 22.8778 155.777 22.1978C155.777 21.5098 155.917 20.9058 156.197 20.3858C156.477 19.8658 156.869 19.4658 157.373 19.1858C157.877 18.9058 158.457 18.7658 159.113 18.7658C159.745 18.7658 160.309 18.9018 160.805 19.1738C161.309 19.4458 161.697 19.8338 161.969 20.3378C162.249 20.8338 162.389 21.4058 162.389 22.0538ZM160.649 21.5738C160.641 21.1418 160.485 20.7978 160.181 20.5418C159.877 20.2778 159.505 20.1458 159.065 20.1458C158.649 20.1458 158.297 20.2738 158.009 20.5298C157.729 20.7778 157.557 21.1258 157.493 21.5738H160.649ZM165.536 19.9058C165.752 19.5538 166.032 19.2778 166.376 19.0778C166.728 18.8778 167.128 18.7778 167.576 18.7778V20.5418H167.132C166.604 20.5418 166.204 20.6658 165.932 20.9138C165.668 21.1618 165.536 21.5938 165.536 22.2098V25.5218H163.856V18.8738H165.536V19.9058ZM171.652 18.3218V16.7738H174.544V25.5218H172.816V18.3218H171.652Z" fill="#3772FF"/>
<path d="M45.9209 20.4444C45.9209 18.5991 46.2302 17.1591 46.8489 16.1244C47.4782 15.0791 48.5555 14.5564 50.0809 14.5564C51.6062 14.5564 52.6782 15.0791 53.2969 16.1244C53.9262 17.1591 54.2409 18.5991 54.2409 20.4444C54.2409 22.3111 53.9262 23.7724 53.2969 24.8284C52.6782 25.8737 51.6062 26.3964 50.0809 26.3964C48.5555 26.3964 47.4782 25.8737 46.8489 24.8284C46.2302 23.7724 45.9209 22.3111 45.9209 20.4444ZM52.4489 20.4444C52.4489 19.5804 52.3902 18.8497 52.2729 18.2524C52.1662 17.6551 51.9422 17.1697 51.6009 16.7964C51.2595 16.4124 50.7529 16.2204 50.0809 16.2204C49.4089 16.2204 48.9022 16.4124 48.5609 16.7964C48.2195 17.1697 47.9902 17.6551 47.8729 18.2524C47.7662 18.8497 47.7129 19.5804 47.7129 20.4444C47.7129 21.3404 47.7662 22.0924 47.8729 22.7004C47.9795 23.3084 48.2035 23.7991 48.5449 24.1724C48.8969 24.5457 49.4089 24.7324 50.0809 24.7324C50.7529 24.7324 51.2595 24.5457 51.6009 24.1724C51.9529 23.7991 52.1822 23.3084 52.2889 22.7004C52.3955 22.0924 52.4489 21.3404 52.4489 20.4444ZM57.1469 26.5404C56.8162 26.5404 56.5389 26.4284 56.3149 26.2044C56.0909 25.9804 55.9789 25.7031 55.9789 25.3724C55.9789 25.0417 56.0909 24.7644 56.3149 24.5404C56.5389 24.3164 56.8162 24.2044 57.1469 24.2044C57.4669 24.2044 57.7389 24.3164 57.9629 24.5404C58.1869 24.7644 58.2989 25.0417 58.2989 25.3724C58.2989 25.7031 58.1869 25.9804 57.9629 26.2044C57.7389 26.4284 57.4669 26.5404 57.1469 26.5404ZM61.0382 23.9484C62.0622 23.0631 62.8676 22.3377 63.4542 21.7724C64.0516 21.1964 64.5476 20.5991 64.9422 19.9804C65.3369 19.3617 65.5342 18.7431 65.5342 18.1244C65.5342 17.4844 65.3796 16.9831 65.0702 16.6204C64.7716 16.2577 64.2969 16.0764 63.6462 16.0764C63.0169 16.0764 62.5262 16.2791 62.1742 16.6844C61.8329 17.0791 61.6516 17.6124 61.6302 18.2844H59.8702C59.9022 17.0684 60.2649 16.1404 60.9582 15.5004C61.6622 14.8497 62.5529 14.5244 63.6302 14.5244C64.7929 14.5244 65.6996 14.8444 66.3502 15.4844C67.0116 16.1244 67.3422 16.9777 67.3422 18.0444C67.3422 18.8124 67.1449 19.5537 66.7502 20.2684C66.3662 20.9724 65.9022 21.6071 65.3582 22.1724C64.8249 22.7271 64.1422 23.3724 63.3102 24.1084L62.5902 24.7484H67.6622V26.2684H59.8862V24.9404L61.0382 23.9484ZM81.1649 23.2604C81.1649 23.7937 81.0315 24.2951 80.7649 24.7644C80.5089 25.2337 80.1249 25.6284 79.6129 25.9484C79.1115 26.2684 78.5142 26.4604 77.8209 26.5244V27.8204H76.7809V26.5244C75.7782 26.4284 74.9675 26.1137 74.3489 25.5804C73.7302 25.0471 73.4209 24.3431 73.4209 23.4684H75.3729C75.4049 23.8844 75.5382 24.2311 75.7729 24.5084C76.0075 24.7751 76.3435 24.9457 76.7809 25.0204V21.5004C76.0662 21.3191 75.4849 21.1377 75.0369 20.9564C74.5889 20.7644 74.2049 20.4657 73.8849 20.0604C73.5755 19.6551 73.4209 19.1004 73.4209 18.3964C73.4209 17.5111 73.7302 16.7804 74.3489 16.2044C74.9675 15.6177 75.7782 15.2764 76.7809 15.1804V13.8844H77.8209V15.1804C78.7595 15.2657 79.5115 15.5644 80.0769 16.0764C80.6529 16.5777 80.9782 17.2711 81.0529 18.1564H79.1009C79.0689 17.8257 78.9409 17.5324 78.7169 17.2764C78.4929 17.0097 78.1942 16.8284 77.8209 16.7324V20.1884C78.5355 20.3591 79.1169 20.5404 79.5649 20.7324C80.0129 20.9137 80.3915 21.2071 80.7009 21.6124C81.0102 22.0071 81.1649 22.5564 81.1649 23.2604ZM75.2769 18.3004C75.2769 18.7377 75.4049 19.0791 75.6609 19.3244C75.9275 19.5697 76.3009 19.7671 76.7809 19.9164V16.6844C76.3222 16.7377 75.9542 16.9031 75.6769 17.1804C75.4102 17.4577 75.2769 17.8311 75.2769 18.3004ZM77.8209 25.0204C78.2902 24.9457 78.6582 24.7591 78.9249 24.4604C79.1915 24.1511 79.3249 23.7831 79.3249 23.3564C79.3249 22.9297 79.1915 22.5991 78.9249 22.3644C78.6689 22.1191 78.3009 21.9217 77.8209 21.7724V25.0204ZM89.1711 20.8764L92.6271 26.4284H90.5791L88.0671 22.3964L85.7151 26.4284H83.6831L87.1391 20.8764L83.6671 15.3084H85.7151L88.2431 19.3724L90.6111 15.3084H92.6431L89.1711 20.8764ZM102.87 15.3084L99.1896 22.3964V26.4284H97.3656V22.3964L93.6696 15.3084H95.7016L98.2776 20.7644L100.854 15.3084H102.87ZM106.077 24.8444H111.245V26.4284H103.917V25.0044L109.069 16.8924H103.917V15.3084H111.245V16.7324L106.077 24.8444Z" fill="white"/>
<path d="M32.1449 22.4163H28.0928C26.605 22.4156 25.3991 21.4518 25.3982 20.2619C25.3982 19.0719 26.605 18.1082 28.0928 18.1074H32.1449" stroke="#3772FF" stroke-width="1.25176" stroke-linecap="round" stroke-linejoin="round"/>
<path d="M28.551 20.2125H28.2391" stroke="#3772FF" stroke-width="1.25176" stroke-linecap="round" stroke-linejoin="round"/>
<path fill-rule="evenodd" clip-rule="evenodd" d="M18.2408 13.2936H26.8921C29.793 13.2936 32.1446 15.1745 32.1446 17.4945V23.2399C32.1446 25.56 29.793 27.4408 26.8921 27.4408H18.2408C15.34 27.4408 12.9883 25.56 12.9883 23.2399V17.4945C12.9883 15.1745 15.34 13.2936 18.2408 13.2936Z" stroke="#3772FF" stroke-width="1.25176" stroke-linecap="round" stroke-linejoin="round"/>
</svg>
